<?xml version="1.0" encoding="UTF-8"?>
<svg width="17px" height="16px" viewBox="0 0 17 16" version="1.1" xmlns="http://www.w3.org/2000/svg" xmlns:xlink="http://www.w3.org/1999/xlink">
    <!-- Generator: Sketch 59.1 (86144) - https://sketch.com -->
    <title>Shape</title>
    <desc>Created with Sketch.</desc>
    <g id="Soliplus-Desktop" stroke="none" stroke-width="1" fill="none" fill-rule="evenodd">
        <g id="bg_example1" transform="translate(-23.000000, -19.000000)" fill="#188CFB" fill-rule="nonzero">
            <g id="soliplus_logo" transform="translate(23.000000, 19.000000)">
                <path d="M4.50347313,4.83294618 C4.4770154,5.06224655 4.38000371,5.25626993 4.21243805,5.41501634 C4.03605316,5.59140124 3.82439128,5.68841293 3.58627167,5.71487066 L3.58627167,8.35182487 C3.58627167,8.38710185 3.56863318,8.42237883 3.54217544,8.44883657 C3.51571771,8.4752943 3.48925998,8.48411355 3.453983,8.48411355 L0.164404666,8.48411355 L0.164404666,15.9981102 L4.41528068,15.9981102 L4.41528068,12.2852081 L6.59363416,9.55124217 L6.57599567,9.55124217 C6.49662247,9.55124217 6.42606851,9.54242293 6.34669531,9.52478444 C6.16149117,9.49832671 6.00274476,9.40131501 5.8528176,9.24256861 C5.65879421,9.05736446 5.56178252,8.81924485 5.56178252,8.53702902 C5.56178252,8.26363243 5.65879421,8.02551282 5.86163684,7.82267018 C6.02920249,7.64628529 6.23204512,7.54045435 6.46134549,7.51399661 L6.42606851,4.83294618 L4.50347313,4.83294618 M0.164404666,7.86676641 L0.164404666,8.21071696 L3.32169432,8.21071696 L3.32169432,5.69723217 C3.30405583,5.68841293 3.28641734,5.68841293 3.25995961,5.68841293 C3.07475547,5.6619552 2.91600906,5.5649435 2.7660819,5.40619709 C2.59851625,5.24745069 2.50150455,5.0534273 2.47504682,4.83294618 L0.481897481,4.83294618 C0.252597115,5.72368991 0.146766176,6.73790307 0.164404666,7.86676641 M10.5887521,0.00881924485 L10.5887521,1.82558368 C10.5887521,1.86086066 10.5799328,1.89613764 10.5534751,1.92259538 C10.5270174,1.94905311 10.4917404,1.95787236 10.4564634,1.95787236 L7.59020883,1.95787236 C7.5637511,2.18717272 7.4667394,2.38119611 7.29035451,2.53994252 C7.11396961,2.71632741 6.90230773,2.81333911 6.66418812,2.83979684 L6.71710359,7.51399661 C6.94640396,7.54045435 7.14042734,7.64628529 7.29917375,7.82267018 C7.36972771,7.89322414 7.43146242,7.98141659 7.48437789,8.08724753 C7.51965487,8.15780149 7.55493185,8.23717469 7.57257034,8.3165479 L11.6029652,3.21902437 C12.2996856,3.75699831 12.6171784,4.42726092 12.5378052,5.2298122 L12.3173241,6.97602268 C12.2732278,8.38710185 12.9523097,9.32194181 14.3722081,9.78936179 L11.6999769,13.8462144 L9.40697327,13.8462144 L10.4123672,15.9981102 L16.1625148,15.9981102 L16.1625148,-4.88498131e-14 L10.5887521,0.00881924485 M10.3241747,1.69329501 L10.3241747,0.00881924485 L8.0752673,0.00881924485 C3.98313769,0.0176384897 1.47847215,1.5345486 0.561270685,4.56836883 L2.48386606,4.56836883 C2.5103238,4.34788771 2.60733549,4.14504508 2.77490114,3.98629867 C2.97774377,3.7746368 3.21586339,3.66880586 3.49807922,3.66880586 C3.7891143,3.66880586 4.02723391,3.7746368 4.2212573,3.98629867 C4.29181126,4.05685263 4.35354597,4.14504508 4.40646144,4.25087602 C4.45937691,4.34788771 4.49465389,4.45371865 4.50347313,4.56836883 L6.42606851,4.56836883 L6.40843002,2.82215835 C6.39079153,2.82215835 6.3643338,2.81333911 6.34669531,2.81333911 C6.16149117,2.77806213 5.99392551,2.68105044 5.8528176,2.53112327 C5.65879421,2.33709989 5.56178252,2.09898027 5.56178252,1.81676444 C5.56178252,1.54336785 5.65879421,1.30524824 5.86163684,1.10240561 C6.06447947,0.899562975 6.30259908,0.793732037 6.58481492,0.793732037 C6.87585,0.793732037 7.11396961,0.899562975 7.307993,1.11122485 C7.37854696,1.17295957 7.44028167,1.26115201 7.49319714,1.36698295 C7.54611261,1.46399465 7.58138959,1.57864483 7.59020883,1.68447577 L10.3241747,1.68447577 L10.3241747,1.69329501 Z" id="Shape"></path>
            </g>
        </g>
    </g>
</svg>