<?xml version="1.0" encoding="UTF-8"?>
<svg width="140px" height="31px" viewBox="0 0 140 31" version="1.1" xmlns="http://www.w3.org/2000/svg" xmlns:xlink="http://www.w3.org/1999/xlink">
    <!-- Generator: Sketch 59.1 (86144) - https://sketch.com -->
    <title>soliplus_logo</title>
    <desc>Created with Sketch.</desc>
    <g id="Soliplus-Desktop" stroke="none" stroke-width="1" fill="none" fill-rule="evenodd">
        <g id="bg_example1" transform="translate(-23.000000, -19.000000)" fill-rule="nonzero">
            <g id="soliplus_logo" transform="translate(23.000000, 19.000000)">
                <path d="M57.1459075,14.8801898 C55.6512456,16.3582444 54.9039146,18.1352313 54.9039146,20.2443654 C54.9039146,22.3534994 55.6512456,24.1470937 57.1459075,25.6251483 C58.6405694,27.0865955 60.4341637,27.8173191 62.5432977,27.8173191 C64.6856465,27.8173191 66.4958482,27.0865955 67.9739027,25.6251483 C69.4519573,24.1470937 70.1826809,22.3701068 70.1826809,20.2443654 C70.1826809,18.1352313 69.4519573,16.3582444 67.9739027,14.8801898 C66.4958482,13.4187426 64.6856465,12.688019 62.5432977,12.688019 C60.4341637,12.688019 58.6405694,13.4187426 57.1459075,14.8801898 M60.5172005,18.1020166 C61.0486358,17.5539739 61.7295374,17.2716489 62.5432977,17.2716489 C63.3902728,17.2716489 64.0877817,17.5539739 64.6192171,18.1020166 C65.1672598,18.6666667 65.4329775,19.3807829 65.4329775,20.2443654 C65.4329775,21.1245552 65.1672598,21.8386714 64.6192171,22.3867141 C64.0877817,22.9347568 63.4068802,23.2170819 62.5432977,23.2170819 C61.7295374,23.2170819 61.0486358,22.9347568 60.5172005,22.3867141 C59.9691578,21.8386714 59.6868327,21.1245552 59.6868327,20.2443654 C59.6868327,19.3641756 59.9691578,18.6500593 60.5172005,18.1020166 M38.86121,13.1364176 C38.86121,14.8635824 39.3926453,16.2087782 40.4721234,17.1553974 C41.5349941,18.1020166 42.9798339,18.8493476 44.8066429,19.3973903 L47.3309609,20.1945433 C48.227758,20.5599051 48.6761566,21.024911 48.6761566,21.6061684 C48.6761566,22.5029656 47.8956109,22.9513642 46.3345196,22.9513642 C44.4578885,22.9513642 43.1293001,22.054567 42.3819692,20.2775801 L38.0142349,22.8351127 C38.5622776,24.3629893 39.5255042,25.5587189 40.9205219,26.455516 C42.3155397,27.3689205 44.059312,27.8173191 46.2016607,27.8173191 C48.4934757,27.8173191 50.3368921,27.252669 51.7319098,26.1399763 C53.1103203,25.0438909 53.8078292,23.4994069 53.8078292,21.539739 C53.8078292,20.5599051 53.6417556,19.71293 53.2930012,18.9655991 C52.9608541,18.2348754 52.4294187,17.6370107 51.7319098,17.1720047 C51.0177936,16.7069988 50.3701068,16.3582444 49.772242,16.1423488 L47.430605,15.311981 C46.0854093,14.9134045 45.1886121,14.5480427 44.7236062,14.232503 C44.2586002,13.9169632 44.0260973,13.5516014 44.0260973,13.1364176 C44.0260973,12.737841 44.1755635,12.4223013 44.4911032,12.173191 C44.8066429,11.9240807 45.2550415,11.8078292 45.886121,11.8078292 C47.3309609,11.8078292 48.3772242,12.5551601 49.0083037,14.0332147 L53.2930012,11.5088968 C52.628707,10.0308422 51.6322657,8.90154211 50.3036773,8.12099644 C49.024911,7.34045077 47.5302491,6.94187426 45.8529063,6.94187426 C43.8766311,6.94187426 42.2158956,7.52313167 40.8873072,8.66903915 C39.5255042,9.79833926 38.86121,11.2930012 38.86121,13.1364176 M116.26809,21.0415184 L116.26809,13.0865955 L111.518387,13.0865955 L111.518387,21.6393832 C111.518387,23.6156584 112,25.143535 112.979834,26.2064057 C113.976275,27.2692764 115.238434,27.8007117 116.782918,27.8007117 C118.576512,27.8007117 119.905101,27.1862396 120.768683,25.9739027 L120.768683,27.4021352 L125.501779,27.4021352 L125.501779,13.0865955 L120.768683,13.0865955 L120.768683,20.6927639 C120.768683,21.539739 120.552788,22.1874259 120.137604,22.6192171 C119.72242,23.0676157 119.141163,23.2835113 118.410439,23.2835113 C117.762752,23.2835113 117.247924,23.1008304 116.849348,22.7188612 C116.467378,22.3534994 116.26809,21.7888493 116.26809,21.0415184 M108.944247,6.51008304 L104.194543,6.51008304 L104.194543,27.4021352 L108.944247,27.4021352 L108.944247,6.51008304 M95.2597865,7.37366548 L87.4709371,7.37366548 L87.4709371,27.4021352 L92.6026097,27.4021352 L92.6026097,21.3902728 L95.2597865,21.3902728 C97.2692764,21.3902728 98.9632266,20.742586 100.341637,19.4139976 C101.720047,18.0854093 102.400949,16.4080664 102.400949,14.3653618 C102.400949,12.3226572 101.720047,10.6453144 100.341637,9.33333333 C98.9798339,8.03795967 97.2858837,7.37366548 95.2597865,7.37366548 M92.6026097,12.2562278 L95.2597865,12.2562278 C95.8244365,12.2562278 96.3060498,12.455516 96.688019,12.8374852 C97.0865955,13.2360617 97.2692764,13.7508897 97.2692764,14.3653618 C97.2692764,14.9964413 97.0699881,15.5112693 96.688019,15.9098458 C96.3060498,16.3084223 95.8244365,16.5077106 95.2597865,16.5077106 L92.6026097,16.5077106 L92.6026097,12.2562278 M84.514828,13.0865955 L79.7817319,13.0865955 L79.7817319,27.4021352 L84.514828,27.4021352 L84.514828,13.0865955 M77.024911,6.51008304 L72.2752076,6.51008304 L72.2752076,27.4021352 L77.024911,27.4021352 L77.024911,6.51008304 M80.2135231,11.1103203 C80.7615658,11.658363 81.4092527,11.9240807 82.1399763,11.9240807 C82.8873072,11.9240807 83.5516014,11.658363 84.0996441,11.1103203 C84.6476868,10.5622776 84.9134045,9.91459075 84.9134045,9.18386714 C84.9134045,8.43653618 84.6476868,7.8054567 84.0996441,7.257414 C83.5516014,6.72597865 82.9039146,6.46026097 82.1399763,6.46026097 C81.4092527,6.46026097 80.7615658,6.72597865 80.2135231,7.257414 C79.6654804,7.8054567 79.3997628,8.43653618 79.3997628,9.18386714 C79.3997628,9.89798339 79.6820878,10.5456702 80.2135231,11.1103203 M129.70344,13.9335706 C128.57414,14.7805457 128.026097,15.9762752 128.026097,17.5041518 C128.026097,18.4507711 128.2586,19.2479241 128.740214,19.8457888 C129.205219,20.4934757 129.803084,20.9252669 130.500593,21.1743772 L134.270463,22.4697509 C134.752076,22.6358244 135.001186,22.8351127 135.001186,23.1008304 C135.001186,23.6156584 134.569395,23.8647687 133.705813,23.8647687 C132.576512,23.8647687 131.829181,23.3333333 131.46382,22.28707 L127.311981,24.3795967 C128.391459,26.6548043 130.533808,27.7841044 133.72242,27.7841044 C135.41637,27.7841044 136.877817,27.4021352 138.090154,26.6215896 C139.319098,25.8410439 139.950178,24.628707 139.950178,22.9679715 C139.950178,21.9217082 139.701068,21.0581257 139.219454,20.3938316 C138.721234,19.71293 138.123369,19.2479241 137.409253,19.0320285 L133.606168,17.8030842 C133.09134,17.6370107 132.84223,17.4543298 132.84223,17.2052195 C132.84223,16.7900356 133.190985,16.57414 133.905101,16.57414 C134.685647,16.57414 135.283511,16.9893238 135.698695,17.8030842 L139.701068,16.0094899 C138.588375,13.7841044 136.628707,12.688019 133.822064,12.688019 C132.211151,12.688019 130.83274,13.1032028 129.70344,13.9335706 Z" id="Shape" fill="#0B365D"></path>
                <path d="M8.33689205,9.10083037 C8.28706999,9.53262159 8.10438909,9.89798339 7.78884935,10.1969158 C7.45670225,10.5290629 7.05812574,10.7117438 6.60972716,10.7615658 L6.60972716,15.7271649 C6.60972716,15.7935943 6.57651246,15.8600237 6.52669039,15.9098458 C6.47686833,15.9596679 6.42704626,15.9762752 6.36061684,15.9762752 L0.166073547,15.9762752 L0.166073547,30.1257414 L8.17081851,30.1257414 L8.17081851,23.1340451 L12.2728351,17.9857651 L12.2396204,17.9857651 C12.0901542,17.9857651 11.9572954,17.9691578 11.8078292,17.9359431 C11.4590747,17.886121 11.1601423,17.7034401 10.8778173,17.4045077 C10.5124555,17.0557533 10.3297746,16.6073547 10.3297746,16.0759193 C10.3297746,15.5610913 10.5124555,15.1126928 10.8944247,14.7307236 C11.2099644,14.3985765 11.5919336,14.1992883 12.0237248,14.1494662 L11.9572954,9.10083037 L8.33689205,9.10083037 M0.166073547,14.8137604 L0.166073547,15.4614472 L6.11150652,15.4614472 L6.11150652,10.7283511 C6.07829181,10.7117438 6.04507711,10.7117438 5.99525504,10.7117438 C5.64650059,10.6619217 5.34756821,10.4792408 5.06524318,10.1803084 C4.74970344,9.88137604 4.56702254,9.51601423 4.51720047,9.10083037 L0.763938316,9.10083037 C0.332147094,10.7781732 0.132858837,12.688019 0.166073547,14.8137604 M19.7959668,0.0166073547 L19.7959668,3.43772242 C19.7959668,3.50415184 19.7793594,3.57058126 19.7295374,3.62040332 C19.6797153,3.67022539 19.6132859,3.68683274 19.5468565,3.68683274 L14.1494662,3.68683274 C14.0996441,4.11862396 13.9169632,4.48398577 13.5848161,4.78291815 C13.252669,5.11506524 12.8540925,5.29774614 12.405694,5.34756821 L12.5053381,14.1494662 C12.9371293,14.1992883 13.3024911,14.3985765 13.6014235,14.7307236 C13.7342823,14.8635824 13.8505338,15.029656 13.9501779,15.2289442 C14.0166074,15.3618031 14.0830368,15.5112693 14.1162515,15.6607355 L21.7058126,6.06168446 C23.0177936,7.0747331 23.6156584,8.33689205 23.4661922,9.84816133 L23.0510083,13.1364176 C22.9679715,15.7935943 24.2467378,17.5539739 26.9205219,18.4341637 L21.8884935,26.0735469 L17.5705813,26.0735469 L19.4638197,30.1257414 L30.2918149,30.1257414 L30.2918149,0 L19.7959668,0.0166073547 M19.2977461,3.1886121 L19.2977461,0.0166073547 L15.0628707,0.0166073547 C7.35705813,0.0332147094 2.6405694,2.88967972 0.913404508,8.60260973 L4.53380783,8.60260973 C4.58362989,8.18742586 4.76631079,7.8054567 5.08185053,7.50652432 C5.46381969,7.10794781 5.91221827,6.90865955 6.44365362,6.90865955 C6.99169632,6.90865955 7.4400949,7.10794781 7.8054567,7.50652432 C7.93831554,7.63938316 8.05456702,7.8054567 8.15421115,8.00474496 C8.25385528,8.18742586 8.3202847,8.38671412 8.33689205,8.60260973 L11.9572954,8.60260973 L11.9240807,5.3143535 C11.890866,5.3143535 11.8410439,5.29774614 11.8078292,5.29774614 C11.4590747,5.23131673 11.143535,5.04863582 10.8778173,4.76631079 C10.5124555,4.40094899 10.3297746,3.95255042 10.3297746,3.42111507 C10.3297746,2.90628707 10.5124555,2.45788849 10.8944247,2.07591934 C11.2763938,1.69395018 11.7247924,1.49466192 12.2562278,1.49466192 C12.8042705,1.49466192 13.252669,1.69395018 13.6180308,2.09252669 C13.7508897,2.20877817 13.8671412,2.37485172 13.9667853,2.57413998 C14.0664294,2.75682088 14.1328588,2.97271649 14.1494662,3.17200474 L19.2977461,3.17200474 L19.2977461,3.1886121 Z" id="Shape" fill="#188CFB"></path>
            </g>
        </g>
    </g>
</svg>